<svg xmlns="http://www.w3.org/2000/svg" width="760" height="420" viewBox="0 0 760 420" role="img">
<rect width="100%" height="100%" fill="#ffffff"/>
<text x="72" y="28" font-family="Arial" font-size="18" font-weight="700">1.5act_3T_1 Nyquist plot</text>
<line x1="72" y1="358" x2="732" y2="358" stroke="#333"/>
<line x1="72" y1="48" x2="72" y2="358" stroke="#333"/>
<text x="402.0" y="402" font-family="Arial" font-size="12" text-anchor="middle">Z&#x27; (ohm)</text>
<text x="18" y="203.0" transform="rotate(-90 18 203.0)" font-family="Arial" font-size="12" text-anchor="middle">-Z&#x27;&#x27; (ohm)</text>
<line x1="72.0" y1="358" x2="72.0" y2="363" stroke="#555"/>
<text x="72.0" y="378" font-family="Arial" font-size="10" text-anchor="middle">-8.82</text>
<line x1="67" y1="358.0" x2="72" y2="358.0" stroke="#555"/>
<text x="63" y="361.0" font-family="Arial" font-size="10" text-anchor="end">-20.7</text>
<line x1="204.0" y1="358" x2="204.0" y2="363" stroke="#555"/>
<text x="204.0" y="378" font-family="Arial" font-size="10" text-anchor="middle">20.7</text>
<line x1="67" y1="296.0" x2="72" y2="296.0" stroke="#555"/>
<text x="63" y="299.0" font-family="Arial" font-size="10" text-anchor="end">37.6</text>
<line x1="336.0" y1="358" x2="336.0" y2="363" stroke="#555"/>
<text x="336.0" y="378" font-family="Arial" font-size="10" text-anchor="middle">50.2</text>
<line x1="67" y1="234.0" x2="72" y2="234.0" stroke="#555"/>
<text x="63" y="237.0" font-family="Arial" font-size="10" text-anchor="end">95.8</text>
<line x1="468.0" y1="358" x2="468.0" y2="363" stroke="#555"/>
<text x="468.0" y="378" font-family="Arial" font-size="10" text-anchor="middle">79.7</text>
<line x1="67" y1="172.0" x2="72" y2="172.0" stroke="#555"/>
<text x="63" y="175.0" font-family="Arial" font-size="10" text-anchor="end">154</text>
<line x1="600.0" y1="358" x2="600.0" y2="363" stroke="#555"/>
<text x="600.0" y="378" font-family="Arial" font-size="10" text-anchor="middle">109</text>
<line x1="67" y1="110.0" x2="72" y2="110.0" stroke="#555"/>
<text x="63" y="113.0" font-family="Arial" font-size="10" text-anchor="end">212</text>
<line x1="732.0" y1="358" x2="732.0" y2="363" stroke="#555"/>
<text x="732.0" y="378" font-family="Arial" font-size="10" text-anchor="middle">139</text>
<line x1="67" y1="48.0" x2="72" y2="48.0" stroke="#555"/>
<text x="63" y="51.0" font-family="Arial" font-size="10" text-anchor="end">271</text>
<circle cx="117.52" cy="336.62" r="3" fill="#111111" opacity="0.82"/>
<circle cx="118.39" cy="336.55" r="3" fill="#111111" opacity="0.82"/>
<circle cx="119.27" cy="336.44" r="3" fill="#111111" opacity="0.82"/>
<circle cx="120.01" cy="336.30" r="3" fill="#111111" opacity="0.82"/>
<circle cx="120.61" cy="336.13" r="3" fill="#111111" opacity="0.82"/>
<circle cx="121.11" cy="335.97" r="3" fill="#111111" opacity="0.82"/>
<circle cx="121.70" cy="335.53" r="3" fill="#111111" opacity="0.82"/>
<circle cx="122.03" cy="335.43" r="3" fill="#111111" opacity="0.82"/>
<circle cx="122.39" cy="335.33" r="3" fill="#111111" opacity="0.82"/>
<circle cx="122.76" cy="335.23" r="3" fill="#111111" opacity="0.82"/>
<circle cx="123.15" cy="335.13" r="3" fill="#111111" opacity="0.82"/>
<circle cx="123.54" cy="335.01" r="3" fill="#111111" opacity="0.82"/>
<circle cx="123.96" cy="334.87" r="3" fill="#111111" opacity="0.82"/>
<circle cx="124.40" cy="334.71" r="3" fill="#111111" opacity="0.82"/>
<circle cx="124.40" cy="334.71" r="3" fill="#111111" opacity="0.82"/>
<circle cx="124.89" cy="334.53" r="3" fill="#111111" opacity="0.82"/>
<circle cx="125.42" cy="334.30" r="3" fill="#111111" opacity="0.82"/>
<circle cx="126.00" cy="334.03" r="3" fill="#111111" opacity="0.82"/>
<circle cx="126.66" cy="333.70" r="3" fill="#111111" opacity="0.82"/>
<circle cx="127.41" cy="333.31" r="3" fill="#111111" opacity="0.82"/>
<circle cx="128.28" cy="332.83" r="3" fill="#111111" opacity="0.82"/>
<circle cx="129.31" cy="332.25" r="3" fill="#111111" opacity="0.82"/>
<circle cx="130.56" cy="331.55" r="3" fill="#111111" opacity="0.82"/>
<circle cx="132.12" cy="330.72" r="3" fill="#111111" opacity="0.82"/>
<circle cx="134.08" cy="329.71" r="3" fill="#111111" opacity="0.82"/>
<circle cx="136.56" cy="328.54" r="3" fill="#111111" opacity="0.82"/>
<circle cx="139.68" cy="327.16" r="3" fill="#111111" opacity="0.82"/>
<circle cx="143.62" cy="325.57" r="3" fill="#111111" opacity="0.82"/>
<circle cx="148.61" cy="323.74" r="3" fill="#111111" opacity="0.82"/>
<circle cx="154.79" cy="321.68" r="3" fill="#111111" opacity="0.82"/>
<circle cx="162.41" cy="319.37" r="3" fill="#111111" opacity="0.82"/>
<circle cx="171.81" cy="316.82" r="3" fill="#111111" opacity="0.82"/>
<circle cx="183.29" cy="314.06" r="3" fill="#111111" opacity="0.82"/>
<circle cx="197.35" cy="311.10" r="3" fill="#111111" opacity="0.82"/>
<circle cx="214.42" cy="308.05" r="3" fill="#111111" opacity="0.82"/>
<circle cx="234.98" cy="305.09" r="3" fill="#111111" opacity="0.82"/>
<circle cx="259.32" cy="302.43" r="3" fill="#111111" opacity="0.82"/>
<circle cx="287.22" cy="300.43" r="3" fill="#111111" opacity="0.82"/>
<circle cx="317.54" cy="299.42" r="3" fill="#111111" opacity="0.82"/>
<circle cx="348.97" cy="299.56" r="3" fill="#111111" opacity="0.82"/>
<circle cx="379.38" cy="300.91" r="3" fill="#111111" opacity="0.82"/>
<circle cx="406.37" cy="303.34" r="3" fill="#111111" opacity="0.82"/>
<circle cx="429.73" cy="306.36" r="3" fill="#111111" opacity="0.82"/>
<circle cx="448.92" cy="309.64" r="3" fill="#111111" opacity="0.82"/>
<circle cx="463.09" cy="312.88" r="3" fill="#111111" opacity="0.82"/>
<circle cx="474.33" cy="315.85" r="3" fill="#111111" opacity="0.82"/>
<circle cx="482.85" cy="318.43" r="3" fill="#111111" opacity="0.82"/>
<circle cx="489.38" cy="320.54" r="3" fill="#111111" opacity="0.82"/>
<circle cx="494.58" cy="322.18" r="3" fill="#111111" opacity="0.82"/>
<circle cx="498.78" cy="323.40" r="3" fill="#111111" opacity="0.82"/>
<circle cx="502.32" cy="324.16" r="3" fill="#111111" opacity="0.82"/>
<circle cx="505.51" cy="324.54" r="3" fill="#111111" opacity="0.82"/>
<circle cx="508.62" cy="324.49" r="3" fill="#111111" opacity="0.82"/>
<circle cx="511.52" cy="324.05" r="3" fill="#111111" opacity="0.82"/>
<circle cx="514.32" cy="323.21" r="3" fill="#111111" opacity="0.82"/>
<circle cx="517.90" cy="321.87" r="3" fill="#111111" opacity="0.82"/>
<circle cx="521.08" cy="320.04" r="3" fill="#111111" opacity="0.82"/>
<circle cx="524.45" cy="317.61" r="3" fill="#111111" opacity="0.82"/>
<circle cx="529.26" cy="314.42" r="3" fill="#111111" opacity="0.82"/>
<circle cx="533.41" cy="310.40" r="3" fill="#111111" opacity="0.82"/>
<circle cx="538.09" cy="305.38" r="3" fill="#111111" opacity="0.82"/>
<circle cx="544.76" cy="299.05" r="3" fill="#111111" opacity="0.82"/>
<circle cx="551.08" cy="291.34" r="3" fill="#111111" opacity="0.82"/>
<circle cx="558.44" cy="281.85" r="3" fill="#111111" opacity="0.82"/>
<circle cx="567.84" cy="270.14" r="3" fill="#111111" opacity="0.82"/>
<circle cx="578.85" cy="255.97" r="3" fill="#111111" opacity="0.82"/>
<circle cx="591.71" cy="238.76" r="3" fill="#111111" opacity="0.82"/>
<circle cx="607.01" cy="217.36" r="3" fill="#111111" opacity="0.82"/>
<circle cx="624.33" cy="191.11" r="3" fill="#111111" opacity="0.82"/>
<circle cx="642.78" cy="159.03" r="3" fill="#111111" opacity="0.82"/>
<circle cx="664.02" cy="118.81" r="3" fill="#111111" opacity="0.82"/>
<circle cx="686.48" cy="69.38" r="3" fill="#111111" opacity="0.82"/>
<circle cx="88" cy="380" r="5" fill="#111111"/>
<text x="98" y="384" font-family="Arial" font-size="11">-Z&#x27;&#x27;</text>
</svg>