<svg xmlns="http://www.w3.org/2000/svg" width="760" height="420" viewBox="0 0 760 420" role="img">
<rect width="100%" height="100%" fill="#ffffff"/>
<text x="72" y="28" font-family="Arial" font-size="18" font-weight="700">1.5act_3T_1 Nyquist plot</text>
<line x1="72" y1="358" x2="732" y2="358" stroke="#333"/>
<line x1="72" y1="48" x2="72" y2="358" stroke="#333"/>
<text x="402.0" y="402" font-family="Arial" font-size="12" text-anchor="middle">Z&#x27; (ohm)</text>
<text x="18" y="203.0" transform="rotate(-90 18 203.0)" font-family="Arial" font-size="12" text-anchor="middle">-Z&#x27;&#x27; (ohm)</text>
<line x1="72.0" y1="358" x2="72.0" y2="363" stroke="#555"/>
<text x="72.0" y="378" font-family="Arial" font-size="10" text-anchor="middle">-8.9</text>
<line x1="67" y1="358.0" x2="72" y2="358.0" stroke="#555"/>
<text x="63" y="361.0" font-family="Arial" font-size="10" text-anchor="end">-20.3</text>
<line x1="204.0" y1="358" x2="204.0" y2="363" stroke="#555"/>
<text x="204.0" y="378" font-family="Arial" font-size="10" text-anchor="middle">20.8</text>
<line x1="67" y1="296.0" x2="72" y2="296.0" stroke="#555"/>
<text x="63" y="299.0" font-family="Arial" font-size="10" text-anchor="end">36.8</text>
<line x1="336.0" y1="358" x2="336.0" y2="363" stroke="#555"/>
<text x="336.0" y="378" font-family="Arial" font-size="10" text-anchor="middle">50.5</text>
<line x1="67" y1="234.0" x2="72" y2="234.0" stroke="#555"/>
<text x="63" y="237.0" font-family="Arial" font-size="10" text-anchor="end">93.9</text>
<line x1="468.0" y1="358" x2="468.0" y2="363" stroke="#555"/>
<text x="468.0" y="378" font-family="Arial" font-size="10" text-anchor="middle">80.2</text>
<line x1="67" y1="172.0" x2="72" y2="172.0" stroke="#555"/>
<text x="63" y="175.0" font-family="Arial" font-size="10" text-anchor="end">151</text>
<line x1="600.0" y1="358" x2="600.0" y2="363" stroke="#555"/>
<text x="600.0" y="378" font-family="Arial" font-size="10" text-anchor="middle">110</text>
<line x1="67" y1="110.0" x2="72" y2="110.0" stroke="#555"/>
<text x="63" y="113.0" font-family="Arial" font-size="10" text-anchor="end">208</text>
<line x1="732.0" y1="358" x2="732.0" y2="363" stroke="#555"/>
<text x="732.0" y="378" font-family="Arial" font-size="10" text-anchor="middle">140</text>
<line x1="67" y1="48.0" x2="72" y2="48.0" stroke="#555"/>
<text x="63" y="51.0" font-family="Arial" font-size="10" text-anchor="end">265</text>
<circle cx="117.52" cy="336.62" r="3" fill="#111111" opacity="0.82"/>
<circle cx="118.45" cy="336.55" r="3" fill="#111111" opacity="0.82"/>
<circle cx="119.26" cy="336.44" r="3" fill="#111111" opacity="0.82"/>
<circle cx="119.97" cy="336.29" r="3" fill="#111111" opacity="0.82"/>
<circle cx="120.56" cy="336.11" r="3" fill="#111111" opacity="0.82"/>
<circle cx="121.06" cy="335.95" r="3" fill="#111111" opacity="0.82"/>
<circle cx="121.64" cy="335.49" r="3" fill="#111111" opacity="0.82"/>
<circle cx="121.98" cy="335.38" r="3" fill="#111111" opacity="0.82"/>
<circle cx="122.37" cy="335.28" r="3" fill="#111111" opacity="0.82"/>
<circle cx="122.78" cy="335.17" r="3" fill="#111111" opacity="0.82"/>
<circle cx="123.21" cy="335.06" r="3" fill="#111111" opacity="0.82"/>
<circle cx="123.67" cy="334.94" r="3" fill="#111111" opacity="0.82"/>
<circle cx="124.13" cy="334.81" r="3" fill="#111111" opacity="0.82"/>
<circle cx="124.62" cy="334.65" r="3" fill="#111111" opacity="0.82"/>
<circle cx="124.62" cy="334.65" r="3" fill="#111111" opacity="0.82"/>
<circle cx="125.14" cy="334.47" r="3" fill="#111111" opacity="0.82"/>
<circle cx="125.70" cy="334.25" r="3" fill="#111111" opacity="0.82"/>
<circle cx="126.30" cy="333.99" r="3" fill="#111111" opacity="0.82"/>
<circle cx="126.96" cy="333.67" r="3" fill="#111111" opacity="0.82"/>
<circle cx="127.71" cy="333.29" r="3" fill="#111111" opacity="0.82"/>
<circle cx="128.57" cy="332.82" r="3" fill="#111111" opacity="0.82"/>
<circle cx="129.58" cy="332.25" r="3" fill="#111111" opacity="0.82"/>
<circle cx="130.81" cy="331.56" r="3" fill="#111111" opacity="0.82"/>
<circle cx="132.34" cy="330.74" r="3" fill="#111111" opacity="0.82"/>
<circle cx="134.26" cy="329.75" r="3" fill="#111111" opacity="0.82"/>
<circle cx="136.68" cy="328.60" r="3" fill="#111111" opacity="0.82"/>
<circle cx="139.73" cy="327.24" r="3" fill="#111111" opacity="0.82"/>
<circle cx="143.57" cy="325.68" r="3" fill="#111111" opacity="0.82"/>
<circle cx="148.35" cy="323.90" r="3" fill="#111111" opacity="0.82"/>
<circle cx="154.25" cy="321.89" r="3" fill="#111111" opacity="0.82"/>
<circle cx="161.50" cy="319.64" r="3" fill="#111111" opacity="0.82"/>
<circle cx="170.33" cy="317.14" r="3" fill="#111111" opacity="0.82"/>
<circle cx="181.07" cy="314.41" r="3" fill="#111111" opacity="0.82"/>
<circle cx="194.15" cy="311.46" r="3" fill="#111111" opacity="0.82"/>
<circle cx="210.09" cy="308.36" r="3" fill="#111111" opacity="0.82"/>
<circle cx="229.41" cy="305.25" r="3" fill="#111111" opacity="0.82"/>
<circle cx="252.56" cy="302.39" r="3" fill="#111111" opacity="0.82"/>
<circle cx="279.48" cy="300.06" r="3" fill="#111111" opacity="0.82"/>
<circle cx="309.27" cy="298.71" r="3" fill="#111111" opacity="0.82"/>
<circle cx="340.64" cy="298.51" r="3" fill="#111111" opacity="0.82"/>
<circle cx="371.54" cy="299.59" r="3" fill="#111111" opacity="0.82"/>
<circle cx="399.43" cy="301.85" r="3" fill="#111111" opacity="0.82"/>
<circle cx="423.87" cy="304.84" r="3" fill="#111111" opacity="0.82"/>
<circle cx="443.98" cy="308.19" r="3" fill="#111111" opacity="0.82"/>
<circle cx="459.03" cy="311.56" r="3" fill="#111111" opacity="0.82"/>
<circle cx="470.98" cy="314.68" r="3" fill="#111111" opacity="0.82"/>
<circle cx="480.04" cy="317.42" r="3" fill="#111111" opacity="0.82"/>
<circle cx="486.89" cy="319.68" r="3" fill="#111111" opacity="0.82"/>
<circle cx="492.29" cy="321.48" r="3" fill="#111111" opacity="0.82"/>
<circle cx="496.67" cy="322.80" r="3" fill="#111111" opacity="0.82"/>
<circle cx="500.35" cy="323.67" r="3" fill="#111111" opacity="0.82"/>
<circle cx="503.52" cy="324.11" r="3" fill="#111111" opacity="0.82"/>
<circle cx="506.58" cy="324.14" r="3" fill="#111111" opacity="0.82"/>
<circle cx="509.47" cy="323.75" r="3" fill="#111111" opacity="0.82"/>
<circle cx="512.38" cy="322.93" r="3" fill="#111111" opacity="0.82"/>
<circle cx="515.65" cy="321.63" r="3" fill="#111111" opacity="0.82"/>
<circle cx="518.72" cy="319.77" r="3" fill="#111111" opacity="0.82"/>
<circle cx="522.18" cy="317.33" r="3" fill="#111111" opacity="0.82"/>
<circle cx="526.93" cy="314.11" r="3" fill="#111111" opacity="0.82"/>
<circle cx="531.05" cy="310.06" r="3" fill="#111111" opacity="0.82"/>
<circle cx="535.75" cy="305.01" r="3" fill="#111111" opacity="0.82"/>
<circle cx="542.54" cy="298.63" r="3" fill="#111111" opacity="0.82"/>
<circle cx="549.03" cy="290.76" r="3" fill="#111111" opacity="0.82"/>
<circle cx="556.76" cy="281.28" r="3" fill="#111111" opacity="0.82"/>
<circle cx="566.06" cy="269.71" r="3" fill="#111111" opacity="0.82"/>
<circle cx="577.69" cy="255.41" r="3" fill="#111111" opacity="0.82"/>
<circle cx="590.97" cy="238.13" r="3" fill="#111111" opacity="0.82"/>
<circle cx="607.04" cy="216.93" r="3" fill="#111111" opacity="0.82"/>
<circle cx="623.70" cy="190.75" r="3" fill="#111111" opacity="0.82"/>
<circle cx="641.83" cy="158.72" r="3" fill="#111111" opacity="0.82"/>
<circle cx="664.02" cy="118.58" r="3" fill="#111111" opacity="0.82"/>
<circle cx="686.48" cy="69.38" r="3" fill="#111111" opacity="0.82"/>
<circle cx="88" cy="380" r="5" fill="#111111"/>
<text x="98" y="384" font-family="Arial" font-size="11">-Z&#x27;&#x27;</text>
</svg>