<svg xmlns="http://www.w3.org/2000/svg" width="760" height="420" viewBox="0 0 760 420" role="img">
<rect width="100%" height="100%" fill="#ffffff"/>
<text x="72" y="28" font-family="Arial" font-size="18" font-weight="700">1.5act_3T_1 Nyquist plot</text>
<line x1="72" y1="358" x2="732" y2="358" stroke="#333"/>
<line x1="72" y1="48" x2="72" y2="358" stroke="#333"/>
<text x="402.0" y="402" font-family="Arial" font-size="12" text-anchor="middle">Z&#x27; (ohm)</text>
<text x="18" y="203.0" transform="rotate(-90 18 203.0)" font-family="Arial" font-size="12" text-anchor="middle">-Z&#x27;&#x27; (ohm)</text>
<line x1="72.0" y1="358" x2="72.0" y2="363" stroke="#555"/>
<text x="72.0" y="378" font-family="Arial" font-size="10" text-anchor="middle">-8.9</text>
<line x1="67" y1="358.0" x2="72" y2="358.0" stroke="#555"/>
<text x="63" y="361.0" font-family="Arial" font-size="10" text-anchor="end">-19.6</text>
<line x1="204.0" y1="358" x2="204.0" y2="363" stroke="#555"/>
<text x="204.0" y="378" font-family="Arial" font-size="10" text-anchor="middle">21.5</text>
<line x1="67" y1="296.0" x2="72" y2="296.0" stroke="#555"/>
<text x="63" y="299.0" font-family="Arial" font-size="10" text-anchor="end">35.9</text>
<line x1="336.0" y1="358" x2="336.0" y2="363" stroke="#555"/>
<text x="336.0" y="378" font-family="Arial" font-size="10" text-anchor="middle">51.9</text>
<line x1="67" y1="234.0" x2="72" y2="234.0" stroke="#555"/>
<text x="63" y="237.0" font-family="Arial" font-size="10" text-anchor="end">91.4</text>
<line x1="468.0" y1="358" x2="468.0" y2="363" stroke="#555"/>
<text x="468.0" y="378" font-family="Arial" font-size="10" text-anchor="middle">82.2</text>
<line x1="67" y1="172.0" x2="72" y2="172.0" stroke="#555"/>
<text x="63" y="175.0" font-family="Arial" font-size="10" text-anchor="end">147</text>
<line x1="600.0" y1="358" x2="600.0" y2="363" stroke="#555"/>
<text x="600.0" y="378" font-family="Arial" font-size="10" text-anchor="middle">113</text>
<line x1="67" y1="110.0" x2="72" y2="110.0" stroke="#555"/>
<text x="63" y="113.0" font-family="Arial" font-size="10" text-anchor="end">202</text>
<line x1="732.0" y1="358" x2="732.0" y2="363" stroke="#555"/>
<text x="732.0" y="378" font-family="Arial" font-size="10" text-anchor="middle">143</text>
<line x1="67" y1="48.0" x2="72" y2="48.0" stroke="#555"/>
<text x="63" y="51.0" font-family="Arial" font-size="10" text-anchor="end">258</text>
<circle cx="117.52" cy="336.62" r="3" fill="#111111" opacity="0.82"/>
<circle cx="117.61" cy="336.43" r="3" fill="#111111" opacity="0.82"/>
<circle cx="117.73" cy="336.26" r="3" fill="#111111" opacity="0.82"/>
<circle cx="117.88" cy="336.11" r="3" fill="#111111" opacity="0.82"/>
<circle cx="118.06" cy="335.97" r="3" fill="#111111" opacity="0.82"/>
<circle cx="118.27" cy="335.84" r="3" fill="#111111" opacity="0.82"/>
<circle cx="118.57" cy="335.72" r="3" fill="#111111" opacity="0.82"/>
<circle cx="118.88" cy="335.60" r="3" fill="#111111" opacity="0.82"/>
<circle cx="119.21" cy="335.48" r="3" fill="#111111" opacity="0.82"/>
<circle cx="119.58" cy="335.37" r="3" fill="#111111" opacity="0.82"/>
<circle cx="119.95" cy="335.26" r="3" fill="#111111" opacity="0.82"/>
<circle cx="120.35" cy="335.14" r="3" fill="#111111" opacity="0.82"/>
<circle cx="120.75" cy="335.01" r="3" fill="#111111" opacity="0.82"/>
<circle cx="121.18" cy="334.85" r="3" fill="#111111" opacity="0.82"/>
<circle cx="121.19" cy="334.85" r="3" fill="#111111" opacity="0.82"/>
<circle cx="121.63" cy="334.67" r="3" fill="#111111" opacity="0.82"/>
<circle cx="122.13" cy="334.45" r="3" fill="#111111" opacity="0.82"/>
<circle cx="122.67" cy="334.18" r="3" fill="#111111" opacity="0.82"/>
<circle cx="123.28" cy="333.86" r="3" fill="#111111" opacity="0.82"/>
<circle cx="123.93" cy="333.47" r="3" fill="#111111" opacity="0.82"/>
<circle cx="124.78" cy="333.00" r="3" fill="#111111" opacity="0.82"/>
<circle cx="125.70" cy="332.43" r="3" fill="#111111" opacity="0.82"/>
<circle cx="126.83" cy="331.73" r="3" fill="#111111" opacity="0.82"/>
<circle cx="128.32" cy="330.91" r="3" fill="#111111" opacity="0.82"/>
<circle cx="130.11" cy="329.94" r="3" fill="#111111" opacity="0.82"/>
<circle cx="132.39" cy="328.77" r="3" fill="#111111" opacity="0.82"/>
<circle cx="135.27" cy="327.43" r="3" fill="#111111" opacity="0.82"/>
<circle cx="138.87" cy="325.92" r="3" fill="#111111" opacity="0.82"/>
<circle cx="143.24" cy="324.15" r="3" fill="#111111" opacity="0.82"/>
<circle cx="148.69" cy="322.14" r="3" fill="#111111" opacity="0.82"/>
<circle cx="155.26" cy="319.89" r="3" fill="#111111" opacity="0.82"/>
<circle cx="163.17" cy="317.36" r="3" fill="#111111" opacity="0.82"/>
<circle cx="172.75" cy="314.53" r="3" fill="#111111" opacity="0.82"/>
<circle cx="184.42" cy="311.39" r="3" fill="#111111" opacity="0.82"/>
<circle cx="198.76" cy="307.96" r="3" fill="#111111" opacity="0.82"/>
<circle cx="216.45" cy="304.37" r="3" fill="#111111" opacity="0.82"/>
<circle cx="238.17" cy="300.80" r="3" fill="#111111" opacity="0.82"/>
<circle cx="264.28" cy="297.62" r="3" fill="#111111" opacity="0.82"/>
<circle cx="294.32" cy="295.26" r="3" fill="#111111" opacity="0.82"/>
<circle cx="327.35" cy="294.09" r="3" fill="#111111" opacity="0.82"/>
<circle cx="361.21" cy="294.39" r="3" fill="#111111" opacity="0.82"/>
<circle cx="393.45" cy="296.18" r="3" fill="#111111" opacity="0.82"/>
<circle cx="422.36" cy="299.08" r="3" fill="#111111" opacity="0.82"/>
<circle cx="446.85" cy="302.72" r="3" fill="#111111" opacity="0.82"/>
<circle cx="466.21" cy="306.58" r="3" fill="#111111" opacity="0.82"/>
<circle cx="481.33" cy="310.31" r="3" fill="#111111" opacity="0.82"/>
<circle cx="492.91" cy="313.67" r="3" fill="#111111" opacity="0.82"/>
<circle cx="501.70" cy="316.55" r="3" fill="#111111" opacity="0.82"/>
<circle cx="508.60" cy="318.88" r="3" fill="#111111" opacity="0.82"/>
<circle cx="514.07" cy="320.68" r="3" fill="#111111" opacity="0.82"/>
<circle cx="518.66" cy="321.96" r="3" fill="#111111" opacity="0.82"/>
<circle cx="522.74" cy="322.76" r="3" fill="#111111" opacity="0.82"/>
<circle cx="526.48" cy="323.07" r="3" fill="#111111" opacity="0.82"/>
<circle cx="529.80" cy="322.95" r="3" fill="#111111" opacity="0.82"/>
<circle cx="532.96" cy="322.35" r="3" fill="#111111" opacity="0.82"/>
<circle cx="536.73" cy="321.21" r="3" fill="#111111" opacity="0.82"/>
<circle cx="540.00" cy="319.56" r="3" fill="#111111" opacity="0.82"/>
<circle cx="543.51" cy="317.29" r="3" fill="#111111" opacity="0.82"/>
<circle cx="548.18" cy="314.23" r="3" fill="#111111" opacity="0.82"/>
<circle cx="552.30" cy="310.33" r="3" fill="#111111" opacity="0.82"/>
<circle cx="556.99" cy="305.47" r="3" fill="#111111" opacity="0.82"/>
<circle cx="563.23" cy="299.21" r="3" fill="#111111" opacity="0.82"/>
<circle cx="568.90" cy="291.60" r="3" fill="#111111" opacity="0.82"/>
<circle cx="575.93" cy="282.21" r="3" fill="#111111" opacity="0.82"/>
<circle cx="584.48" cy="270.59" r="3" fill="#111111" opacity="0.82"/>
<circle cx="594.15" cy="256.56" r="3" fill="#111111" opacity="0.82"/>
<circle cx="605.31" cy="239.21" r="3" fill="#111111" opacity="0.82"/>
<circle cx="619.66" cy="217.99" r="3" fill="#111111" opacity="0.82"/>
<circle cx="634.33" cy="191.30" r="3" fill="#111111" opacity="0.82"/>
<circle cx="649.40" cy="158.90" r="3" fill="#111111" opacity="0.82"/>
<circle cx="666.68" cy="118.96" r="3" fill="#111111" opacity="0.82"/>
<circle cx="686.48" cy="69.38" r="3" fill="#111111" opacity="0.82"/>
<circle cx="88" cy="380" r="5" fill="#111111"/>
<text x="98" y="384" font-family="Arial" font-size="11">-Z&#x27;&#x27;</text>
</svg>