<svg xmlns="http://www.w3.org/2000/svg" width="760" height="420" viewBox="0 0 760 420" role="img">
<rect width="100%" height="100%" fill="#ffffff"/>
<text x="72" y="28" font-family="Arial" font-size="18" font-weight="700">1.5act_3T_1 Nyquist plot</text>
<line x1="72" y1="358" x2="732" y2="358" stroke="#333"/>
<line x1="72" y1="48" x2="72" y2="358" stroke="#333"/>
<text x="402.0" y="402" font-family="Arial" font-size="12" text-anchor="middle">Z&#x27; (ohm)</text>
<text x="18" y="203.0" transform="rotate(-90 18 203.0)" font-family="Arial" font-size="12" text-anchor="middle">-Z&#x27;&#x27; (ohm)</text>
<line x1="72.0" y1="358" x2="72.0" y2="363" stroke="#555"/>
<text x="72.0" y="378" font-family="Arial" font-size="10" text-anchor="middle">-5.08</text>
<line x1="67" y1="358.0" x2="72" y2="358.0" stroke="#555"/>
<text x="63" y="361.0" font-family="Arial" font-size="10" text-anchor="end">-18.7</text>
<line x1="204.0" y1="358" x2="204.0" y2="363" stroke="#555"/>
<text x="204.0" y="378" font-family="Arial" font-size="10" text-anchor="middle">14.1</text>
<line x1="67" y1="296.0" x2="72" y2="296.0" stroke="#555"/>
<text x="63" y="299.0" font-family="Arial" font-size="10" text-anchor="end">34</text>
<line x1="336.0" y1="358" x2="336.0" y2="363" stroke="#555"/>
<text x="336.0" y="378" font-family="Arial" font-size="10" text-anchor="middle">33.3</text>
<line x1="67" y1="234.0" x2="72" y2="234.0" stroke="#555"/>
<text x="63" y="237.0" font-family="Arial" font-size="10" text-anchor="end">86.7</text>
<line x1="468.0" y1="358" x2="468.0" y2="363" stroke="#555"/>
<text x="468.0" y="378" font-family="Arial" font-size="10" text-anchor="middle">52.5</text>
<line x1="67" y1="172.0" x2="72" y2="172.0" stroke="#555"/>
<text x="63" y="175.0" font-family="Arial" font-size="10" text-anchor="end">139</text>
<line x1="600.0" y1="358" x2="600.0" y2="363" stroke="#555"/>
<text x="600.0" y="378" font-family="Arial" font-size="10" text-anchor="middle">71.7</text>
<line x1="67" y1="110.0" x2="72" y2="110.0" stroke="#555"/>
<text x="63" y="113.0" font-family="Arial" font-size="10" text-anchor="end">192</text>
<line x1="732.0" y1="358" x2="732.0" y2="363" stroke="#555"/>
<text x="732.0" y="378" font-family="Arial" font-size="10" text-anchor="middle">90.9</text>
<line x1="67" y1="48.0" x2="72" y2="48.0" stroke="#555"/>
<text x="63" y="51.0" font-family="Arial" font-size="10" text-anchor="end">245</text>
<circle cx="117.52" cy="336.62" r="3" fill="#111111" opacity="0.82"/>
<circle cx="117.64" cy="336.43" r="3" fill="#111111" opacity="0.82"/>
<circle cx="117.76" cy="336.26" r="3" fill="#111111" opacity="0.82"/>
<circle cx="117.90" cy="336.11" r="3" fill="#111111" opacity="0.82"/>
<circle cx="118.06" cy="335.97" r="3" fill="#111111" opacity="0.82"/>
<circle cx="118.25" cy="335.84" r="3" fill="#111111" opacity="0.82"/>
<circle cx="118.52" cy="335.69" r="3" fill="#111111" opacity="0.82"/>
<circle cx="118.85" cy="335.55" r="3" fill="#111111" opacity="0.82"/>
<circle cx="119.27" cy="335.41" r="3" fill="#111111" opacity="0.82"/>
<circle cx="119.79" cy="335.25" r="3" fill="#111111" opacity="0.82"/>
<circle cx="120.43" cy="335.09" r="3" fill="#111111" opacity="0.82"/>
<circle cx="121.21" cy="334.92" r="3" fill="#111111" opacity="0.82"/>
<circle cx="122.13" cy="334.74" r="3" fill="#111111" opacity="0.82"/>
<circle cx="123.15" cy="334.56" r="3" fill="#111111" opacity="0.82"/>
<circle cx="123.16" cy="334.56" r="3" fill="#111111" opacity="0.82"/>
<circle cx="124.25" cy="334.38" r="3" fill="#111111" opacity="0.82"/>
<circle cx="125.41" cy="334.18" r="3" fill="#111111" opacity="0.82"/>
<circle cx="126.59" cy="333.95" r="3" fill="#111111" opacity="0.82"/>
<circle cx="127.81" cy="333.69" r="3" fill="#111111" opacity="0.82"/>
<circle cx="129.10" cy="333.38" r="3" fill="#111111" opacity="0.82"/>
<circle cx="130.53" cy="333.00" r="3" fill="#111111" opacity="0.82"/>
<circle cx="132.23" cy="332.53" r="3" fill="#111111" opacity="0.82"/>
<circle cx="134.22" cy="331.97" r="3" fill="#111111" opacity="0.82"/>
<circle cx="136.61" cy="331.31" r="3" fill="#111111" opacity="0.82"/>
<circle cx="139.48" cy="330.54" r="3" fill="#111111" opacity="0.82"/>
<circle cx="142.95" cy="329.65" r="3" fill="#111111" opacity="0.82"/>
<circle cx="147.13" cy="328.64" r="3" fill="#111111" opacity="0.82"/>
<circle cx="152.13" cy="327.50" r="3" fill="#111111" opacity="0.82"/>
<circle cx="158.04" cy="326.21" r="3" fill="#111111" opacity="0.82"/>
<circle cx="165.05" cy="324.75" r="3" fill="#111111" opacity="0.82"/>
<circle cx="173.38" cy="323.10" r="3" fill="#111111" opacity="0.82"/>
<circle cx="183.33" cy="321.23" r="3" fill="#111111" opacity="0.82"/>
<circle cx="195.62" cy="319.16" r="3" fill="#111111" opacity="0.82"/>
<circle cx="210.90" cy="316.93" r="3" fill="#111111" opacity="0.82"/>
<circle cx="229.91" cy="314.65" r="3" fill="#111111" opacity="0.82"/>
<circle cx="253.07" cy="312.52" r="3" fill="#111111" opacity="0.82"/>
<circle cx="280.38" cy="310.83" r="3" fill="#111111" opacity="0.82"/>
<circle cx="310.85" cy="309.86" r="3" fill="#111111" opacity="0.82"/>
<circle cx="342.64" cy="309.81" r="3" fill="#111111" opacity="0.82"/>
<circle cx="373.43" cy="310.69" r="3" fill="#111111" opacity="0.82"/>
<circle cx="401.36" cy="312.36" r="3" fill="#111111" opacity="0.82"/>
<circle cx="424.99" cy="314.52" r="3" fill="#111111" opacity="0.82"/>
<circle cx="444.21" cy="316.87" r="3" fill="#111111" opacity="0.82"/>
<circle cx="459.32" cy="319.17" r="3" fill="#111111" opacity="0.82"/>
<circle cx="470.94" cy="321.29" r="3" fill="#111111" opacity="0.82"/>
<circle cx="480.07" cy="323.09" r="3" fill="#111111" opacity="0.82"/>
<circle cx="487.16" cy="324.58" r="3" fill="#111111" opacity="0.82"/>
<circle cx="492.97" cy="325.73" r="3" fill="#111111" opacity="0.82"/>
<circle cx="497.76" cy="326.56" r="3" fill="#111111" opacity="0.82"/>
<circle cx="502.08" cy="327.12" r="3" fill="#111111" opacity="0.82"/>
<circle cx="506.02" cy="327.38" r="3" fill="#111111" opacity="0.82"/>
<circle cx="509.79" cy="327.35" r="3" fill="#111111" opacity="0.82"/>
<circle cx="513.66" cy="327.05" r="3" fill="#111111" opacity="0.82"/>
<circle cx="517.01" cy="326.44" r="3" fill="#111111" opacity="0.82"/>
<circle cx="520.52" cy="325.52" r="3" fill="#111111" opacity="0.82"/>
<circle cx="524.66" cy="324.19" r="3" fill="#111111" opacity="0.82"/>
<circle cx="528.43" cy="322.43" r="3" fill="#111111" opacity="0.82"/>
<circle cx="532.30" cy="320.15" r="3" fill="#111111" opacity="0.82"/>
<circle cx="537.48" cy="317.17" r="3" fill="#111111" opacity="0.82"/>
<circle cx="541.76" cy="313.50" r="3" fill="#111111" opacity="0.82"/>
<circle cx="545.94" cy="308.84" r="3" fill="#111111" opacity="0.82"/>
<circle cx="552.35" cy="302.89" r="3" fill="#111111" opacity="0.82"/>
<circle cx="558.04" cy="295.70" r="3" fill="#111111" opacity="0.82"/>
<circle cx="563.94" cy="286.77" r="3" fill="#111111" opacity="0.82"/>
<circle cx="572.09" cy="275.58" r="3" fill="#111111" opacity="0.82"/>
<circle cx="581.12" cy="261.77" r="3" fill="#111111" opacity="0.82"/>
<circle cx="592.37" cy="244.31" r="3" fill="#111111" opacity="0.82"/>
<circle cx="605.33" cy="222.90" r="3" fill="#111111" opacity="0.82"/>
<circle cx="620.01" cy="196.03" r="3" fill="#111111" opacity="0.82"/>
<circle cx="637.29" cy="162.68" r="3" fill="#111111" opacity="0.82"/>
<circle cx="658.69" cy="120.68" r="3" fill="#111111" opacity="0.82"/>
<circle cx="686.48" cy="69.38" r="3" fill="#111111" opacity="0.82"/>
<circle cx="88" cy="380" r="5" fill="#111111"/>
<text x="98" y="384" font-family="Arial" font-size="11">-Z&#x27;&#x27;</text>
</svg>