<svg xmlns="http://www.w3.org/2000/svg" width="760" height="420" viewBox="0 0 760 420" role="img">
<rect width="100%" height="100%" fill="#ffffff"/>
<text x="72" y="28" font-family="Arial" font-size="18" font-weight="700">1.5act_3T_1 Nyquist plot</text>
<line x1="72" y1="358" x2="732" y2="358" stroke="#333"/>
<line x1="72" y1="48" x2="72" y2="358" stroke="#333"/>
<text x="402.0" y="402" font-family="Arial" font-size="12" text-anchor="middle">Z&#x27; (ohm)</text>
<text x="18" y="203.0" transform="rotate(-90 18 203.0)" font-family="Arial" font-size="12" text-anchor="middle">-Z&#x27;&#x27; (ohm)</text>
<line x1="72.0" y1="358" x2="72.0" y2="363" stroke="#555"/>
<text x="72.0" y="378" font-family="Arial" font-size="10" text-anchor="middle">-8.22</text>
<line x1="67" y1="358.0" x2="72" y2="358.0" stroke="#555"/>
<text x="63" y="361.0" font-family="Arial" font-size="10" text-anchor="end">-19.2</text>
<line x1="204.0" y1="358" x2="204.0" y2="363" stroke="#555"/>
<text x="204.0" y="378" font-family="Arial" font-size="10" text-anchor="middle">20.3</text>
<line x1="67" y1="296.0" x2="72" y2="296.0" stroke="#555"/>
<text x="63" y="299.0" font-family="Arial" font-size="10" text-anchor="end">35</text>
<line x1="336.0" y1="358" x2="336.0" y2="363" stroke="#555"/>
<text x="336.0" y="378" font-family="Arial" font-size="10" text-anchor="middle">48.8</text>
<line x1="67" y1="234.0" x2="72" y2="234.0" stroke="#555"/>
<text x="63" y="237.0" font-family="Arial" font-size="10" text-anchor="end">89.2</text>
<line x1="468.0" y1="358" x2="468.0" y2="363" stroke="#555"/>
<text x="468.0" y="378" font-family="Arial" font-size="10" text-anchor="middle">77.3</text>
<line x1="67" y1="172.0" x2="72" y2="172.0" stroke="#555"/>
<text x="63" y="175.0" font-family="Arial" font-size="10" text-anchor="end">143</text>
<line x1="600.0" y1="358" x2="600.0" y2="363" stroke="#555"/>
<text x="600.0" y="378" font-family="Arial" font-size="10" text-anchor="middle">106</text>
<line x1="67" y1="110.0" x2="72" y2="110.0" stroke="#555"/>
<text x="63" y="113.0" font-family="Arial" font-size="10" text-anchor="end">198</text>
<line x1="732.0" y1="358" x2="732.0" y2="363" stroke="#555"/>
<text x="732.0" y="378" font-family="Arial" font-size="10" text-anchor="middle">134</text>
<line x1="67" y1="48.0" x2="72" y2="48.0" stroke="#555"/>
<text x="63" y="51.0" font-family="Arial" font-size="10" text-anchor="end">252</text>
<circle cx="117.52" cy="336.62" r="3" fill="#111111" opacity="0.82"/>
<circle cx="117.63" cy="336.43" r="3" fill="#111111" opacity="0.82"/>
<circle cx="117.76" cy="336.26" r="3" fill="#111111" opacity="0.82"/>
<circle cx="117.90" cy="336.11" r="3" fill="#111111" opacity="0.82"/>
<circle cx="118.08" cy="335.97" r="3" fill="#111111" opacity="0.82"/>
<circle cx="118.30" cy="335.85" r="3" fill="#111111" opacity="0.82"/>
<circle cx="118.59" cy="335.73" r="3" fill="#111111" opacity="0.82"/>
<circle cx="118.88" cy="335.62" r="3" fill="#111111" opacity="0.82"/>
<circle cx="119.19" cy="335.52" r="3" fill="#111111" opacity="0.82"/>
<circle cx="119.52" cy="335.41" r="3" fill="#111111" opacity="0.82"/>
<circle cx="119.87" cy="335.31" r="3" fill="#111111" opacity="0.82"/>
<circle cx="120.22" cy="335.19" r="3" fill="#111111" opacity="0.82"/>
<circle cx="120.59" cy="335.06" r="3" fill="#111111" opacity="0.82"/>
<circle cx="120.99" cy="334.90" r="3" fill="#111111" opacity="0.82"/>
<circle cx="120.99" cy="334.90" r="3" fill="#111111" opacity="0.82"/>
<circle cx="121.41" cy="334.71" r="3" fill="#111111" opacity="0.82"/>
<circle cx="121.88" cy="334.49" r="3" fill="#111111" opacity="0.82"/>
<circle cx="122.40" cy="334.22" r="3" fill="#111111" opacity="0.82"/>
<circle cx="122.99" cy="333.90" r="3" fill="#111111" opacity="0.82"/>
<circle cx="123.67" cy="333.51" r="3" fill="#111111" opacity="0.82"/>
<circle cx="124.49" cy="333.04" r="3" fill="#111111" opacity="0.82"/>
<circle cx="125.48" cy="332.47" r="3" fill="#111111" opacity="0.82"/>
<circle cx="126.67" cy="331.78" r="3" fill="#111111" opacity="0.82"/>
<circle cx="128.20" cy="330.97" r="3" fill="#111111" opacity="0.82"/>
<circle cx="130.08" cy="330.02" r="3" fill="#111111" opacity="0.82"/>
<circle cx="132.50" cy="328.89" r="3" fill="#111111" opacity="0.82"/>
<circle cx="135.43" cy="327.60" r="3" fill="#111111" opacity="0.82"/>
<circle cx="139.16" cy="326.11" r="3" fill="#111111" opacity="0.82"/>
<circle cx="143.67" cy="324.42" r="3" fill="#111111" opacity="0.82"/>
<circle cx="149.18" cy="322.48" r="3" fill="#111111" opacity="0.82"/>
<circle cx="155.78" cy="320.31" r="3" fill="#111111" opacity="0.82"/>
<circle cx="163.67" cy="317.86" r="3" fill="#111111" opacity="0.82"/>
<circle cx="173.20" cy="315.10" r="3" fill="#111111" opacity="0.82"/>
<circle cx="184.84" cy="312.02" r="3" fill="#111111" opacity="0.82"/>
<circle cx="199.23" cy="308.64" r="3" fill="#111111" opacity="0.82"/>
<circle cx="217.12" cy="305.06" r="3" fill="#111111" opacity="0.82"/>
<circle cx="239.21" cy="301.51" r="3" fill="#111111" opacity="0.82"/>
<circle cx="265.91" cy="298.33" r="3" fill="#111111" opacity="0.82"/>
<circle cx="296.77" cy="295.97" r="3" fill="#111111" opacity="0.82"/>
<circle cx="330.66" cy="294.83" r="3" fill="#111111" opacity="0.82"/>
<circle cx="365.38" cy="295.14" r="3" fill="#111111" opacity="0.82"/>
<circle cx="398.39" cy="296.91" r="3" fill="#111111" opacity="0.82"/>
<circle cx="427.86" cy="299.79" r="3" fill="#111111" opacity="0.82"/>
<circle cx="452.79" cy="303.36" r="3" fill="#111111" opacity="0.82"/>
<circle cx="472.49" cy="307.17" r="3" fill="#111111" opacity="0.82"/>
<circle cx="487.95" cy="310.81" r="3" fill="#111111" opacity="0.82"/>
<circle cx="499.80" cy="314.11" r="3" fill="#111111" opacity="0.82"/>
<circle cx="508.99" cy="316.92" r="3" fill="#111111" opacity="0.82"/>
<circle cx="516.15" cy="319.21" r="3" fill="#111111" opacity="0.82"/>
<circle cx="521.92" cy="320.98" r="3" fill="#111111" opacity="0.82"/>
<circle cx="526.74" cy="322.25" r="3" fill="#111111" opacity="0.82"/>
<circle cx="530.93" cy="323.04" r="3" fill="#111111" opacity="0.82"/>
<circle cx="534.85" cy="323.38" r="3" fill="#111111" opacity="0.82"/>
<circle cx="538.28" cy="323.28" r="3" fill="#111111" opacity="0.82"/>
<circle cx="541.72" cy="322.71" r="3" fill="#111111" opacity="0.82"/>
<circle cx="545.54" cy="321.68" r="3" fill="#111111" opacity="0.82"/>
<circle cx="549.00" cy="320.09" r="3" fill="#111111" opacity="0.82"/>
<circle cx="552.66" cy="317.89" r="3" fill="#111111" opacity="0.82"/>
<circle cx="557.41" cy="314.92" r="3" fill="#111111" opacity="0.82"/>
<circle cx="561.44" cy="311.21" r="3" fill="#111111" opacity="0.82"/>
<circle cx="566.28" cy="306.44" r="3" fill="#111111" opacity="0.82"/>
<circle cx="572.43" cy="300.38" r="3" fill="#111111" opacity="0.82"/>
<circle cx="577.99" cy="292.92" r="3" fill="#111111" opacity="0.82"/>
<circle cx="583.95" cy="283.85" r="3" fill="#111111" opacity="0.82"/>
<circle cx="591.45" cy="272.42" r="3" fill="#111111" opacity="0.82"/>
<circle cx="600.12" cy="258.47" r="3" fill="#111111" opacity="0.82"/>
<circle cx="610.55" cy="241.24" r="3" fill="#111111" opacity="0.82"/>
<circle cx="622.57" cy="220.02" r="3" fill="#111111" opacity="0.82"/>
<circle cx="634.66" cy="193.52" r="3" fill="#111111" opacity="0.82"/>
<circle cx="649.74" cy="160.45" r="3" fill="#111111" opacity="0.82"/>
<circle cx="666.29" cy="119.73" r="3" fill="#111111" opacity="0.82"/>
<circle cx="686.48" cy="69.38" r="3" fill="#111111" opacity="0.82"/>
<circle cx="88" cy="380" r="5" fill="#111111"/>
<text x="98" y="384" font-family="Arial" font-size="11">-Z&#x27;&#x27;</text>
</svg>